<?xml version="1.0" encoding="UTF-8"?>
<svg width="1200pt" height="1200pt" version="1.1" viewBox="0 0 1200 1200" xmlns="http://www.w3.org/2000/svg">
 <path d="m514.14 28.125c94.902 0 171.84 76.938 171.84 171.84 0 72.012-44.574 134.98-109.7 160.26 102.61 24.043 183.81 106.28 205.93 210.06h132.3c6.1094 0 10.852 5.7695 8.9102 12.297l-80.344 299.87h112.5c-31.188-30.801-24.375-81.215 12.125-103.21-36.48-21.98-43.074-72.262-12.664-102.68 11.898-11.898 28.316-19.281 46.383-19.281h161.09c5.1758 0 9.375 4.1992 9.375 9.375v495.84c0 5.1758-4.1992 9.375-9.375 9.375h-124.03c-5.1758 0-9.375-4.1992-9.375-9.375v-125.96h-858.19v125.96c0 5.1758-4.1992 9.375-9.375 9.375h-124.03c-5.1758 0-9.375-4.1992-9.375-9.375v-270.68c0-5.1758 4.1992-9.375 9.375-9.375h255c-31.906-20.879-52.434-56.684-52.434-96.516v-158.8c0-128.27 89.734-238.31 211.91-266.91-115.02-44.648-147.43-193.68-59.348-281.76 31.094-31.098 74.059-50.332 121.51-50.332zm638.99 816.78h-125.97c-12.344 0-12.344-18.75 0-18.75h125.97v-37.543h-151.71c-41.176 0-62.906 50.266-33.125 80.043 8.5078 8.5078 20.234 13.789 33.125 13.789l151.71 0.003907zm0-112.58h-125.97c-12.344 0-12.344-18.75 0-18.75h125.97v-37.539h-151.71c-41.176 0-62.906 50.266-33.125 80.043 8.5078 8.5078 20.234 13.789 33.125 13.789h151.71zm-978.16-557.62c32.258 0 48.52 39.184 25.688 62.016-4.4492 4.4492-10.047 7.75-16.312 9.418v64.391l24.453 0.20312c19.941-34.73 55.211-90.148 55.211-113.18 0-49.176-39.863-89.043-89.039-89.043-49.176 0-89.039 39.863-89.039 89.043 0 23.035 35.27 78.453 55.211 113.18l24.457-0.20312v-64.391c-26.82-7.1445-36.172-40.934-16.312-60.793 6.5703-6.5742 15.652-10.641 25.684-10.641zm12.434 23.895c-11.043-11.043-30.008-3.1836-30.008 12.43 0 15.617 18.969 23.469 30.008 12.43 6.8594-6.8594 6.8594-17.992 0-24.859zm-30.852-136.07-7.3555-27.449c-3.1875-11.914-21.277-7.0703-18.09 4.8359l7.3555 27.449c3.1836 11.906 21.27 7.0703 18.09-4.8359zm53.855 4.832 7.3555-27.449c3.1836-11.902-14.902-16.746-18.09-4.8359l-7.3555 27.453c-3.1875 11.902 14.906 16.742 18.09 4.832zm43.691 17.387 14.207-24.605c6.168-10.668-10.027-20.023-16.188-9.375l-14.207 24.605c-6.1641 10.664 10.02 20.023 16.188 9.375zm-146.05-9.375-14.207-24.609c-6.1562-10.648-22.355-1.293-16.188 9.375l14.207 24.605c6.1641 10.656 22.363 1.2891 16.188-9.3711zm184.43 47.828 24.609-14.207c10.664-6.1406 1.332-22.312-9.3008-16.188l-24.609 14.207c-10.656 6.1367-1.3516 22.305 9.3008 16.188zm-225.71-16.191-24.609-14.207c-10.637-6.125-19.965 10.047-9.3008 16.188l24.609 14.207c10.645 6.1328 19.965-10.059 9.3008-16.188zm51.527 247.53v17.816c0 7.1875 2.9336 13.715 7.6602 18.441l0.019532-0.019531c2.2344 2.2305 4.8594 4.0625 7.7617 5.375v11.148c0 11.559 9.4219 20.98 20.98 20.98h40.52c5.7773 0 11.023-2.3594 14.824-6.1562 7.4766-7.4766 6.1562-15.719 6.1562-25.973 9.2227-4.1797 15.441-13.32 15.441-23.797v-35.73c0-6.5-2.4023-12.461-6.3594-17.039 22.203-38.867 57.469-93.355 57.469-122.04 0-59.527-48.262-107.79-107.79-107.79s-107.79 48.262-107.79 107.79c0 28.68 35.266 83.176 57.469 122.04-3.957 4.5742-6.3555 10.539-6.3555 17.039v17.914zm18.75-9.4258h75.859c0-5.4961 0.89453-10.613-2.1641-13.672l0.019531-0.019531c-1.4258-1.375-3.1562-2.1484-5.1992-2.1484h-61.168c-4.0117 0-7.3516 3.2578-7.3516 7.3516zm75.859 18.75h-75.859c0 5.4922-0.89453 10.609 2.1641 13.672l-0.019531 0.019532c1.4102 1.3594 3.1328 2.1484 5.1992 2.1484h61.16c4.1016 0 7.3516-3.3594 7.3516-7.3516zm-15.438 34.59h-44.98c0 3.0156-0.53516 9.2148 0.66016 10.414 0.40625 0.40625 0.96484 0.66406 1.5664 0.66406h40.52c1.2031 0 2.2305-1.0234 2.2305-2.2305v-8.8477zm822.13-319.41c-55.977 0-101.36 45.383-101.36 101.36 0 55.98 45.383 101.36 101.36 101.36 55.98 0 101.36-45.383 101.36-101.36 0-55.98-45.383-101.36-101.36-101.36zm58.418 42.945c-32.262-32.262-84.57-32.262-116.84 0-32.262 32.262-32.262 84.574 0 116.83 32.262 32.262 84.574 32.262 116.84 0 32.262-32.258 32.262-84.57 0-116.83zm-67.793 14.27v40.891l-17.57 21.891c-3.2344 4.0234-2.5977 9.9102 1.4258 13.145 4.0234 3.2344 9.9102 2.5977 13.145-1.4258l19.246-23.98c1.5508-1.6719 2.4961-3.9102 2.4961-6.3711l0.003906-44.148c0.003907-12.344-18.746-12.344-18.746 0zm9.375-108.14c-84.102 0-152.29 68.184-152.29 152.29 0 84.105 68.184 152.29 152.29 152.29 84.105 0 152.29-68.184 152.29-152.29 0-84.105-68.184-152.29-152.29-152.29zm94.426 57.863c-52.148-52.148-136.71-52.148-188.86 0-52.148 52.148-52.148 136.71 0 188.86s136.71 52.148 188.86 0c52.148-52.148 52.152-136.71 0-188.86zm39.113 950.55h-105.28v116.59h105.28zm-1001 0h-105.28v116.59h105.28zm671.53-154.09 78.617-293.41h-321.97l-78.621 293.41zm-341.36 0 13.598-50.742-34.059-58.992h-52.664c-3.7852 0-7.043-2.2422-8.5234-5.4688l-16.145-29.816c-5.8398-10.82 10.621-19.723 16.48-8.8633l13.75 25.398h36.277l-87.168-150.98c-2.5703-4.4688-1.0273-10.176 3.4414-12.742l52.738-30.473c4.4688-2.5859 10.191-1.0625 12.781 3.4062l92.234 159.75 39.039-145.69c1.1172-4.1875 4.9062-6.9492 9.043-6.9453v-0.011719h189.92c-26.348-114.74-129.4-198.48-248.93-198.48-140.41 0-255.32 114.91-255.32 255.32v158.8c0 53.066 43.449 96.516 96.516 96.516zm670.8 18.75h-1106.2v116.59h1106.2zm-709.07-257.59 18.039 31.246c6.125 10.637-10.047 19.965-16.188 9.3008l-18.02-31.211-10.223 5.9023 85.082 147.37 15.465-57.719-63.953-110.77zm-35.742-0.96484 36.594-21.125-23.605-40.891-36.594 21.125zm214.07-550.93c-59.785-59.785-156.72-59.785-216.51 0-59.785 59.785-59.785 156.72 0 216.51 59.785 59.785 156.72 59.785 216.51 0 59.785-59.789 59.785-156.72 0-216.51z" fill="#61d9fb" fill-rule="evenodd"/>
</svg>
